<?xml version="1.0" encoding="utf-8"?>
<!-- Generator: Adobe Illustrator 24.0.3, SVG Export Plug-In . SVG Version: 6.00 Build 0)  -->
<svg version="1.1" id="Layer_1" xmlns="http://www.w3.org/2000/svg" xmlns:xlink="http://www.w3.org/1999/xlink" x="0px" y="0px"
	 viewBox="0 0 1024 1024" style="enable-background:new 0 0 1024 1024;" xml:space="preserve">
<style type="text/css">
	.st0{fill:#FB4F4F;}
	.st1{fill:#FBC93D;}
	.st2{fill:#6CC0E5;}
</style>
<g>
	<path class="st0" d="M226,762L226,762c-41.25,0-75-33.75-75-75V337c0-41.25,33.75-75,75-75h0c41.25,0,75,33.75,75,75v350
		C301,728.25,267.25,762,226,762z"/>
</g>
<g>
	<path class="st1" d="M511.5,762L511.5,762c-41.25,0-75-33.75-75-75V337c0-41.25,33.75-75,75-75h0c41.25,0,75,33.75,75,75v350
		C586.5,728.25,552.75,762,511.5,762z"/>
</g>
<g>
	<path class="st2" d="M797,762L797,762c-41.25,0-75-33.75-75-75V337c0-41.25,33.75-75,75-75h0c41.25,0,75,33.75,75,75v350
		C872,728.25,838.25,762,797,762z"/>
</g>
</svg>
