<?xml version="1.0" encoding="utf-8"?>
<!-- Generator: Adobe Illustrator 24.0.3, SVG Export Plug-In . SVG Version: 6.00 Build 0)  -->
<svg version="1.1" id="Layer_1" xmlns="http://www.w3.org/2000/svg" xmlns:xlink="http://www.w3.org/1999/xlink" x="0px" y="0px"
	 viewBox="0 0 222.63 767.65" style="enable-background:new 0 0 222.63 767.65;" xml:space="preserve">
<g>
	<path d="M117.62,2.28V632.2c0,1.16,0.87,2.13,2.02,2.26c1.84,0.21,3.65,0.41,5.45,0.68c19.59,2.91,36.78,11.15,51.94,23.72
		c19.87,16.48,33.37,37.42,42.5,61.37c1.06,2.77,2,5.58,2.98,8.48c0.5,1.48-0.6,3.01-2.15,3.01h-47.69c-1.48,0-2.56,1.39-2.21,2.83
		c0.09,0.38,0.18,0.75,0.27,1.13c2.72,12.23-4.54,25.49-18.64,28.29c-6.69,1.33-13.52,1.98-20.3,2.78
		c-10.9,1.29-21.85,0.93-32.77,0.58c-6.67-0.21-13.33-1.06-19.96-1.89c-2.48-0.31-4.98-0.66-7.44-1.17
		c-12.53-2.57-21.55-13.97-20.4-26.71c0.03-0.37,0.07-0.73,0.13-1.09c0.09-0.62,0.22-1.23,0.38-1.85c0.37-1.44-0.7-2.85-2.19-2.85
		H2.28c-1.56,0-2.66-1.54-2.15-3.02c1.2-3.46,2.35-6.84,3.64-10.16c7.81-20.04,18.88-37.99,34.38-53.02
		c15.59-15.13,33.77-25.56,55.27-29.71c2.85-0.55,5.73-0.91,8.75-1.34c1.13-0.16,1.97-1.12,1.97-2.26V2.28
		c0-1.26,1.02-2.28,2.28-2.28h8.95C116.6,0,117.62,1.02,117.62,2.28z M126.59,758.16c7.12-0.59,14.2-1.57,21.3-2.34
		c5.89-0.64,10.33-3.54,12.99-8.77c2.18-4.27,1.61-8.77,0.18-13.23c-0.54-1.68-1.38-2.08-3.07-2.08
		c-28.58,0.06-57.16,0.04-85.74,0.04c-3.02,0-6.03,0.04-9.05-0.02c-0.93-0.02-1.3,0.34-1.66,1.15c-1.26,2.88-1.51,5.89-1.44,8.98
		c0.12,5.08,4.35,11.08,9.21,12.62c6.96,2.21,14.22,2.77,21.42,3.29c7.84,0.56,15.73,0.58,23.59,0.83"/>
</g>
</svg>
